<svg width="0" height="0" fill="#000000" xmlns="http://www.w3.org/2000/svg">
    <symbol viewBox="0 0 22 8" id="arrow">
        <path d="M1 3.5C0.723858 3.5 0.5 3.72386 0.5 4C0.5 4.27614 0.723858 4.5 1 4.5L1 3.5ZM21.3536 4.35355C21.5488 4.15829 21.5488 3.84171 21.3536 3.64644L18.1716 0.464465C17.9763 0.269202 17.6597 0.269202 17.4645 0.464465C17.2692 0.659727 17.2692 0.976309 17.4645 1.17157L20.2929 4L17.4645 6.82843C17.2692 7.02369 17.2692 7.34027 17.4645 7.53553C17.6597 7.73079 17.9763 7.73079 18.1716 7.53553L21.3536 4.35355ZM1 4.5L21 4.5L21 3.5L1 3.5L1 4.5Z"/>
    </symbol>
    <symbol viewBox="0 0 135 90" id="points">
        <circle cx="130" cy="85" r="5" fill="#3EB2FF" fill-opacity="0.2"/>
        <circle cx="105" cy="85" r="5" fill="#3EB2FF" fill-opacity="0.2"/>
        <circle cx="80" cy="85" r="5" fill="#3EB2FF" fill-opacity="0.2"/>
        <circle cx="55" cy="85" r="5" fill="#3EB2FF" fill-opacity="0.2"/>
        <circle cx="30" cy="85" r="5" fill="#3EB2FF" fill-opacity="0.2"/>
        <circle cx="5" cy="85" r="5" fill="#3EB2FF" fill-opacity="0.2"/>
        <circle cx="130" cy="65" r="5" fill="#3EB2FF" fill-opacity="0.2"/>
        <circle cx="105" cy="65" r="5" fill="#3EB2FF" fill-opacity="0.2"/>
        <circle cx="80" cy="65" r="5" fill="#3EB2FF" fill-opacity="0.2"/>
        <circle cx="55" cy="65" r="5" fill="#3EB2FF" fill-opacity="0.2"/>
        <circle cx="30" cy="65" r="5" fill="#3EB2FF" fill-opacity="0.2"/>
        <circle cx="5" cy="65" r="5" fill="#3EB2FF" fill-opacity="0.2"/>
        <circle cx="130" cy="45" r="5" fill="#3EB2FF" fill-opacity="0.2"/>
        <circle cx="105" cy="45" r="5" fill="#3EB2FF" fill-opacity="0.2"/>
        <circle cx="80" cy="45" r="5" fill="#3EB2FF" fill-opacity="0.2"/>
        <circle cx="55" cy="45" r="5" fill="#3EB2FF" fill-opacity="0.2"/>
        <circle cx="30" cy="45" r="5" fill="#3EB2FF" fill-opacity="0.2"/>
        <circle cx="5" cy="45" r="5" fill="#3EB2FF" fill-opacity="0.2"/>
        <circle cx="130" cy="25" r="5" fill="#3EB2FF" fill-opacity="0.2"/>
        <circle cx="105" cy="25" r="5" fill="#3EB2FF" fill-opacity="0.2"/>
        <circle cx="80" cy="25" r="5" fill="#3EB2FF" fill-opacity="0.2"/>
        <circle cx="55" cy="25" r="5" fill="#3EB2FF" fill-opacity="0.2"/>
        <circle cx="30" cy="25" r="5" fill="#3EB2FF" fill-opacity="0.2"/>
        <circle cx="5" cy="25" r="5" fill="#3EB2FF" fill-opacity="0.2"/>
        <circle cx="130" cy="5" r="5" fill="#3EB2FF" fill-opacity="0.2"/>
        <circle cx="105" cy="5" r="5" fill="#3EB2FF" fill-opacity="0.2"/>
        <circle cx="80" cy="5" r="5" fill="#3EB2FF" fill-opacity="0.2"/>
        <circle cx="55" cy="5" r="5" fill="#3EB2FF" fill-opacity="0.2"/>
        <circle cx="30" cy="5" r="5" fill="#3EB2FF" fill-opacity="0.2"/>
        <circle cx="5" cy="5" r="5" fill="#3EB2FF" fill-opacity="0.2"/>
    </symbol>
</svg>